<svg xmlns="http://www.w3.org/2000/svg" width="14.317" height="17.593" viewBox="0 0 14.317 17.593">
  <g id="Group_2" data-name="Group 2" transform="translate(-213.491 -355.001)">
    <g id="Group_1" data-name="Group 1" transform="translate(213.506 355)">
      <g id="delete">
        <path id="Path_142" data-name="Path 142" d="M222.81,154.7c-.228,0-.412.109-.412.245v4.623c0,.135.184.245.412.245s.412-.11.412-.245v-4.623C223.223,154.813,223.038,154.7,222.81,154.7Zm0,0" transform="translate(-214.424 -146.019)" fill="#ef5a2f"/>
        <path id="Path_143" data-name="Path 143" d="M104.81,154.7c-.228,0-.412.109-.412.245v4.623c0,.135.184.245.412.245s.412-.11.412-.245v-4.623C105.223,154.813,105.038,154.7,104.81,154.7Zm0,0" transform="translate(-98.908 -146.019)" fill="#ef5a2f"/>
        <path id="Path_144" data-name="Path 144" d="M1.167,5.237V15.388a2.273,2.273,0,0,0,.6,1.568,2.029,2.029,0,0,0,1.472.637h7.8a2.029,2.029,0,0,0,1.472-.637,2.273,2.273,0,0,0,.6-1.568V5.237a1.574,1.574,0,0,0-.4-3.1H10.6V1.626A1.618,1.618,0,0,0,8.971,0H5.312A1.618,1.618,0,0,0,3.68,1.626v.515H1.571a1.574,1.574,0,0,0-.4,3.1Zm9.872,11.532h-7.8a1.3,1.3,0,0,1-1.253-1.38V5.273h10.3V15.388a1.3,1.3,0,0,1-1.247,1.38ZM4.5,1.626a.794.794,0,0,1,.808-.8H8.971a.794.794,0,0,1,.808.8v.515H4.5ZM1.571,2.965H12.712a.742.742,0,1,1,0,1.483H1.571a.742.742,0,1,1,0-1.483Zm0,0" transform="translate(0.003 0.001)" fill="#ef5a2f"/>
      </g>
      <g id="delete-2" data-name="delete" transform="translate(0.288 0.355)">
        <path id="Path_142-2" data-name="Path 142" d="M222.794,154.7c-.218,0-.4.1-.4.235v4.437c0,.13.177.235.4.235s.4-.1.4-.235v-4.437C223.189,154.808,223.012,154.7,222.794,154.7Zm0,0" transform="translate(-214.745 -146.369)" fill="#ef5a2f"/>
        <path id="Path_143-2" data-name="Path 143" d="M104.794,154.7c-.218,0-.4.1-.4.235v4.437c0,.13.177.235.4.235s.4-.1.4-.235v-4.437C105.189,154.808,105.012,154.7,104.794,154.7Zm0,0" transform="translate(-99.129 -146.369)" fill="#ef5a2f"/>
        <path id="Path_144-2" data-name="Path 144" d="M1.12,5.025v9.742a2.182,2.182,0,0,0,.58,1.5,1.947,1.947,0,0,0,1.413.611h7.481a1.947,1.947,0,0,0,1.413-.611,2.182,2.182,0,0,0,.58-1.5V5.025a1.51,1.51,0,0,0-.388-2.97H10.175V1.561A1.553,1.553,0,0,0,8.609,0H5.1A1.553,1.553,0,0,0,3.532,1.561v.494H1.507a1.51,1.51,0,0,0-.388,2.97Zm9.474,11.067H3.113a1.252,1.252,0,0,1-1.2-1.325V5.06H11.8v9.707a1.252,1.252,0,0,1-1.206,1.325ZM4.323,1.561A.762.762,0,0,1,5.1.79H8.609a.762.762,0,0,1,.775.771v.494H4.323ZM1.507,2.846H12.2a.712.712,0,1,1,0,1.423H1.507a.712.712,0,1,1,0-1.423Zm0,0" transform="translate(0.003 0.001)" fill="#ef5a2f"/>
      </g>
    </g>
  </g>
</svg>
