<svg xmlns="http://www.w3.org/2000/svg" width="90.003" height="90" viewBox="0 0 90.003 90">
  <path id="icn_profile_black" d="M50,5a45,45,0,1,0,0,90,44.493,44.493,0,0,0,28.21-9.942A45,45,0,0,0,50,5Zm0,15.758A14.621,14.621,0,1,1,35.378,35.379,14.621,14.621,0,0,1,50,20.758Zm28.835,55.5a39,39,0,0,1-57.668,0c-.645-.706-1.252-1.439-1.839-2.185C21.72,64.158,34.535,56.58,50,56.58s28.276,7.577,30.673,17.491C80.086,74.818,79.478,75.551,78.834,76.258Z" transform="translate(-5 -5)" fill="#ef5a2f"/>
</svg>
