<svg xmlns="http://www.w3.org/2000/svg" width="71.329" height="90" viewBox="0 0 71.329 90">
  <g id="icn_tools_success_black" transform="translate(-14 -5)">
    <path id="Path_439" data-name="Path 439" d="M66.269,34.8a2.047,2.047,0,0,1,2.018,2.389,2.123,2.123,0,0,1-2.128,1.7H57.519a2.046,2.046,0,0,1-2.046-2.046V28.2a2.123,2.123,0,0,1,1.7-2.128,2.047,2.047,0,0,1,2.39,2.018v3.676L84.678,8.549a2.046,2.046,0,0,0-2.777-3l-11.138,10.3a30.987,30.987,0,0,0-48.319,16.8c0,.007-.005.014-.007.02L14.385,56.957a7,7,0,0,0,.762,6.161A6.666,6.666,0,0,0,20.7,66.04h.67v5.8A16.346,16.346,0,0,0,37.712,88.189h3.772v4.654a2.122,2.122,0,0,0,1.7,2.128,2.047,2.047,0,0,0,2.389-2.017V86.132a2.045,2.045,0,0,0-2.046-2.046c-.085,0-.165,0-.3.011H37.713A12.255,12.255,0,0,1,25.459,71.843V63.994a2.045,2.045,0,0,0-2.046-2.046H20.767a2.689,2.689,0,0,1-1.859-.695,2.633,2.633,0,0,1-.717-2.776s8.144-24.546,8.168-24.636A26.905,26.905,0,0,1,67.7,18.675L63.631,22.44c-6.336-4.191-14.415-4.172-21.453-1.271a5.813,5.813,0,0,0-2.157,9.276L62.07,54.831a5.794,5.794,0,0,0,9.676-1.726A26.2,26.2,0,0,0,70.236,29.7a1.7,1.7,0,0,0-2.628-.413L61.643,34.8ZM35.351,45.568A4.436,4.436,0,1,0,39.788,50a4.436,4.436,0,0,0-4.436-4.436ZM74.4,25.4a2.042,2.042,0,0,1,.29-2.669h0a2.056,2.056,0,0,1,3.079.322,30.658,30.658,0,0,1,5.36,14.478A31.025,31.025,0,0,1,81.76,50.369c-.467,1.431-.951,2.869-1.438,4.315-.8,2.378-1.627,4.837-2.381,7.271a48.5,48.5,0,0,0,.436,30.229,2.126,2.126,0,0,1-.726,2.447,2.046,2.046,0,0,1-3.108-1.012,52.549,52.549,0,0,1-.509-32.876c.769-2.479,1.6-4.962,2.411-7.363.483-1.434.964-2.862,1.427-4.282a26.953,26.953,0,0,0,1.185-11.153A26.545,26.545,0,0,0,74.4,25.4Z" fill="#ef5a2f" fill-rule="evenodd"/>
  </g>
</svg>
