<svg xmlns="http://www.w3.org/2000/svg" width="93.303" height="90.09" viewBox="0 0 93.303 90.09">
  <g id="icn_launch_black" transform="translate(-7.293 -9.292)">
    <path id="Path_435" data-name="Path 435" d="M24.953,23.645a6.823,6.823,0,1,0-4.827-2A6.823,6.823,0,0,0,24.953,23.645Zm-2.412-9.234a3.411,3.411,0,1,1,4.824,4.824,3.491,3.491,0,0,1-4.824,0A3.411,3.411,0,0,1,22.542,14.411Z" transform="translate(7.646 0.499)"/>
    <path id="Path_436" data-name="Path 436" d="M52.7,29.25l-2.848-1.876q-.814,1.237-1.672,2.441l2.78,1.975Q51.859,30.536,52.7,29.25Z" transform="translate(28.855 12.759)"/>
    <path id="Path_437" data-name="Path 437" d="M59.669,19.651,56.5,18.379a86.843,86.843,0,0,1-6.359,12.7l2.913,1.774a89.858,89.858,0,0,0,6.609-13.2Z" transform="translate(30.239 6.412)"/>
    <rect id="Rectangle_1596" data-name="Rectangle 1596" width="19.298" height="3.411" transform="translate(84.048 67.285) rotate(-45)"/>
    <rect id="Rectangle_1597" data-name="Rectangle 1597" width="4.824" height="3.411" transform="translate(77.225 74.107) rotate(-45)"/>
    <rect id="Rectangle_1598" data-name="Rectangle 1598" width="9.649" height="3.411" transform="translate(60.168 80.93) rotate(-45)"/>
    <rect id="Rectangle_1599" data-name="Rectangle 1599" width="4.824" height="3.411" transform="translate(65.285 12.703) rotate(-45)"/>
    <rect id="Rectangle_1600" data-name="Rectangle 1600" width="12.061" height="3.411" transform="translate(17.243 36.015) rotate(-45)"/>
    <path id="Path_438" data-name="Path 438" d="M15.323,66l5.521-5.521L26.2,65.84,23.145,68.9a1.706,1.706,0,0,0-.341,1.888l-12.468,2.77a1.706,1.706,0,0,0-.653,3.029l5,3.752-5,3.752a1.706,1.706,0,0,0,.484,2.983l3.1,1.032L9.244,94.813a1.706,1.706,0,0,0,2.217,2.4l8.475-4.237,1.085,3.251a1.706,1.706,0,0,0,3.07.341l3.993-6.652,3.573,3.572a1.706,1.706,0,0,0,2.9-.965l1.266-8.857a1.764,1.764,0,0,0,.457.089,1.705,1.705,0,0,0,1.206-.5l3.069-3.067,1.353,1.353L52.141,91.777a1.706,1.706,0,0,0,2.912-1.206V73.843l6.763-4.87A96.225,96.225,0,0,0,97.088,21.026l2.217-6.669A1.706,1.706,0,0,0,97.4,12.139,97.31,97.31,0,0,0,51.856,33.361l-4.808-6.185,1.892.631a1.708,1.708,0,0,0,1.211-.051L58,24.394l3,1,1.08-3.241-3.616-1.2A1.706,1.706,0,0,0,57.253,21l-7.846,3.362-6.616-2.209-3.619-1.206a1.706,1.706,0,0,0-1.745.413l-3.619,3.618a1.523,1.523,0,0,0-.2.271l-.017-.012L28.77,32.474a1.683,1.683,0,0,0-.276.757L27.355,43.492l-1.98,1.99,2.412,2.412L30.2,45.483a1.706,1.706,0,0,0,.49-1.023l1.16-10.444,2.963-4.445,1.1,2.2a1.683,1.683,0,0,0,.16.259l7.126,9.5A95.493,95.493,0,0,0,34.406,52.4l-.443.64H17.528a1.706,1.706,0,0,0-1.206,2.912l2.11,2.108-5.521,5.521ZM28.968,85.956a1.706,1.706,0,0,0-2.668.327l-3.21,5.349-.534-1.6a1.706,1.706,0,0,0-2.379-.986l-5,2.5,2.1-3.507a1.706,1.706,0,0,0-.923-2.5l-2.028-.682L18.552,81.7a1.706,1.706,0,0,0,0-2.729l-3.855-2.9,10.815-2.4,7.263,7.263-1.1,7.72Zm7.322-6.323-9.528-9.528,1.852-1.854,9.528,9.528Zm15.351,6.823-5.9-5.9,5.9-4.252ZM37.089,26.523l2-2,2.129.71,7.2,9.257-3.582,3.582-5.97-7.952ZM48.363,41.108h7.2L68.356,51.575a1.706,1.706,0,0,0,2.286-.113l3.619-3.618-2.408-2.413-2.529,2.528L57.253,38.082a1.706,1.706,0,0,0-1.08-.385H52.006A94.051,94.051,0,0,1,95.159,16.035l-1.3,3.911A92.848,92.848,0,0,1,59.828,66.2L43.292,78.1,29.98,64.794l7.227-10.439A92.38,92.38,0,0,1,48.363,41.108ZM31.591,56.459l-4.068,5.876-5.878-5.876Z" transform="translate(1.204 1.991)"/>
    <rect id="Rectangle_1601" data-name="Rectangle 1601" width="4.824" height="3.411" transform="translate(7.293 72.402) rotate(-45)"/>
    <rect id="Rectangle_1602" data-name="Rectangle 1602" width="9.649" height="3.411" transform="translate(53.346 57.05) rotate(-45)"/>
    <rect id="Rectangle_1603" data-name="Rectangle 1603" width="4.824" height="3.411" transform="translate(46.523 63.873) rotate(-45)"/>
  </g>
</svg>
