<svg xmlns="http://www.w3.org/2000/svg" width="551.13" height="551.13" viewBox="0 0 551.13 551.13">
  <g id="Group_1" data-name="Group 1" transform="translate(-600 -407)">
    <g id="icn_search" transform="translate(600 407)">
      <path id="Path_1" data-name="Path 1" d="M551.13,526.776,364.345,339.991a205.646,205.646,0,0,0,49-133.317C413.348,92.707,320.64,0,206.674,0S0,92.707,0,206.674,92.707,413.348,206.674,413.348a205.647,205.647,0,0,0,133.317-49L526.776,551.13ZM206.674,378.9c-94.961,0-172.228-77.267-172.228-172.228S111.713,34.446,206.674,34.446,378.9,111.713,378.9,206.674,301.635,378.9,206.674,378.9Z" fill="#d8d8d8"/>
    </g>
  </g>
</svg>
