<svg xmlns="http://www.w3.org/2000/svg" width="13.862" height="13.863" viewBox="0 0 13.862 13.863">
  <g id="Group_1" data-name="Group 1" transform="translate(-214.036 -357)">
    <path id="Path_1" data-name="Path 1" d="M120.875.884a2.127,2.127,0,0,0-3.007,0l-8.431,8.431a.472.472,0,0,0-.121.208l-1.109,4a.472.472,0,0,0,.581.582l4-1.109a.472.472,0,0,0,.208-.121l8.431-8.431a2.129,2.129,0,0,0,0-3.007ZM110.467,9.622l6.9-6.9,2.225,2.225-6.9,6.9Zm-.445.892,1.778,1.778-2.459.681Zm10.74-6.736-.5.5-2.225-2.225.5-.5a1.181,1.181,0,0,1,1.671,0l.555.555A1.183,1.183,0,0,1,120.762,3.777Zm0,0" transform="translate(105.846 356.739)" fill="#798397"/>
  </g>
</svg>
