<svg xmlns="http://www.w3.org/2000/svg" width="28.555" height="26.58" viewBox="0 0 28.555 26.58">
  <g id="Group_232" data-name="Group 232" transform="translate(-206 -350)">
    <g id="random" transform="translate(206 332.29)">
      <g id="Group_227" data-name="Group 227" transform="translate(14.566 32.396)">
        <g id="Group_226" data-name="Group 226">
          <path id="Path_969" data-name="Path 969" d="M275.15,286.972l-5.945-5.948v4.724h-.582c-2.72,0-4.473-1.6-6.062-3.844-.438.715-.9,1.459-1.4,2.2,1.8,2.29,4.076,4.1,7.463,4.1h.582v4.723Z" transform="translate(-261.16 -281.024)" fill="#fff"/>
        </g>
      </g>
      <g id="Group_229" data-name="Group 229" transform="translate(0 17.71)">
        <g id="Group_228" data-name="Group 228" transform="translate(0 0)">
          <path id="Path_970" data-name="Path 970" d="M28.555,23.658,22.61,17.71v4.724h-.582c-5.174,0-7.748,4.212-10.019,7.928-2.216,3.626-4.129,6.757-7.93,6.757H0v2.448H4.079c5.174,0,7.748-4.212,10.019-7.928,2.216-3.626,4.129-6.757,7.93-6.757h.582V29.6Z" transform="translate(0 -17.71)" fill="#fff"/>
        </g>
      </g>
      <g id="Group_231" data-name="Group 231" transform="translate(0 22.434)">
        <g id="Group_230" data-name="Group 230">
          <path id="Path_971" data-name="Path 971" d="M4.079,102.4H0v2.448H4.079c2.72,0,4.473,1.6,6.062,3.844.438-.715.9-1.459,1.4-2.2C9.739,104.209,7.466,102.4,4.079,102.4Z" transform="translate(0 -102.404)" fill="#fff"/>
        </g>
      </g>
    </g>
  </g>
</svg>
