<svg xmlns="http://www.w3.org/2000/svg" width="44" height="35" viewBox="0 0 44 35">
  <g id="Group_1" data-name="Group 1" transform="translate(-198 -346)">
    <g id="Vector_Smart_Object" data-name="Vector Smart Object" transform="translate(-1013 -239)">
      <g id="Vector_Smart_Object-2" data-name="Vector Smart Object" transform="translate(1185.857 579.615)">
        <path id="Path_9" data-name="Path 9" d="M38.205,25.577a8.94,8.94,0,1,0,8.938-8.75A8.845,8.845,0,0,0,38.205,25.577ZM66.393,10.769H56.768c-.687-2.692-1.375-5.385-4.125-5.385h-11c-2.75,0-3.437,2.692-4.125,5.385H27.893a2.73,2.73,0,0,0-2.75,2.692V37.692a2.73,2.73,0,0,0,2.75,2.692h38.5a2.73,2.73,0,0,0,2.75-2.692V13.462A2.73,2.73,0,0,0,66.393,10.769ZM47.143,37.524a12.076,12.076,0,0,1-12.2-11.947,12.206,12.206,0,0,1,24.406,0A12.076,12.076,0,0,1,47.143,37.524Zm19.25-18.678h-5.5V16.154h5.5Z" fill="#aeb8cb"/>
      </g>
      <path id="Color_Overlay" data-name="Color Overlay" d="M1213.75,620a2.729,2.729,0,0,1-2.749-2.693V593.077a2.729,2.729,0,0,1,2.749-2.692h9.626c.687-2.693,1.374-5.385,4.125-5.385h11c2.75,0,3.438,2.692,4.125,5.385h9.625a2.729,2.729,0,0,1,2.75,2.692v24.231a2.73,2.73,0,0,1-2.75,2.693Zm7.047-14.808a12.206,12.206,0,1,0,12.2-11.948A12.076,12.076,0,0,0,1220.8,605.192Zm25.953-6.731h5.5v-2.692h-5.5Zm-22.688,6.731a8.94,8.94,0,1,1,8.938,8.75A8.845,8.845,0,0,1,1224.062,605.192Z" fill="#aeb8cb"/>
    </g>
  </g>
</svg>
