<svg xmlns="http://www.w3.org/2000/svg" width="20.09" height="25.4" viewBox="0 0 20.09 25.4">
  <g id="Group_2" data-name="Group 2" transform="translate(-208.474 -349.598)">
    <g id="Group_1" data-name="Group 1" transform="translate(-1192 81)">
      <g id="delete" transform="translate(1400.474 268.598)">
        <path id="Path_142" data-name="Path 142" d="M223.064,154.7c-.367,0-.665.177-.665.4v7.463c0,.218.3.4.665.4s.665-.177.665-.4V155.1C223.729,154.88,223.431,154.7,223.064,154.7Zm0,0" transform="translate(-211.291 -142.773)" fill="#7c7d7e"/>
        <path id="Path_143" data-name="Path 143" d="M105.064,154.7c-.367,0-.665.177-.665.4v7.463c0,.218.3.4.665.4s.665-.177.665-.4V155.1C105.729,154.88,105.431,154.7,105.064,154.7Zm0,0" transform="translate(-96.747 -142.773)" fill="#7c7d7e"/>
        <path id="Path_144" data-name="Path 144" d="M1.639,7.561V22.217a3.334,3.334,0,0,0,.849,2.264,2.813,2.813,0,0,0,2.067.919H15.5a2.813,2.813,0,0,0,2.069-.92,3.334,3.334,0,0,0,.849-2.264V7.561a2.271,2.271,0,0,0,1.635-2.493,2.232,2.232,0,0,0-2.2-1.979H14.89V2.349A2.371,2.371,0,0,0,14.222.682,2.242,2.242,0,0,0,12.6,0H7.46A2.242,2.242,0,0,0,5.837.682a2.371,2.371,0,0,0-.668,1.667v.743H2.206A2.232,2.232,0,0,0,0,5.071,2.271,2.271,0,0,0,1.639,7.564ZM15.5,24.21H4.555a1.812,1.812,0,0,1-1.287-.616A1.916,1.916,0,0,1,2.8,22.217V7.613H17.262v14.6a1.916,1.916,0,0,1-.472,1.376,1.812,1.812,0,0,1-1.287.616ZM6.326,2.349a1.163,1.163,0,0,1,.326-.827,1.1,1.1,0,0,1,.8-.335h5.138a1.1,1.1,0,0,1,.8.335,1.163,1.163,0,0,1,.326.827v.743h-7.4ZM2.206,4.282H17.852a1.036,1.036,0,0,1,.965.512,1.1,1.1,0,0,1,0,1.117,1.036,1.036,0,0,1-.965.512H2.206a1.036,1.036,0,0,1-.965-.512,1.1,1.1,0,0,1,0-1.117,1.036,1.036,0,0,1,.965-.512Zm0,0" transform="translate(0.015 0)" fill="#7c7d7e"/>
      </g>
    </g>
  </g>
</svg>
