<svg xmlns="http://www.w3.org/2000/svg" width="26.804" height="26.804" viewBox="0 0 26.804 26.804">
  <g id="Group_234" data-name="Group 234" transform="translate(-207 -350)">
    <g id="calendar_5_" data-name="calendar (5)" transform="translate(207 350)">
      <g id="Group_233" data-name="Group 233">
        <g id="Group_232" data-name="Group 232">
          <path id="Path_972" data-name="Path 972" d="M24.187,1.623h-2.3V.537a.524.524,0,1,0-1.047,0V1.623H16.569V.524a.524.524,0,1,0-1.047,0v1.1H11.282V.524a.524.524,0,1,0-1.047,0v1.1H5.973V.537a.524.524,0,0,0-1.047,0V1.623H2.618A2.621,2.621,0,0,0,0,4.241V24.187A2.621,2.621,0,0,0,2.618,26.8H24.187A2.621,2.621,0,0,0,26.8,24.187V4.241A2.621,2.621,0,0,0,24.187,1.623Zm1.571,22.564a1.572,1.572,0,0,1-1.571,1.571H2.618a1.572,1.572,0,0,1-1.571-1.571V8.575h24.71Zm0-16.659H1.047V7.481h24.71Zm0,0H1.047V4.241A1.572,1.572,0,0,1,2.618,2.67H4.926V3.678a.524.524,0,0,0,1.047,0V2.67h4.262v.995a.524.524,0,1,0,1.047,0V2.67h4.241v.995a.524.524,0,1,0,1.047,0V2.67h4.267V3.678a.524.524,0,1,0,1.047,0V2.67h2.3a1.572,1.572,0,0,1,1.571,1.571Z" fill="#aeb8cb"/>
          <path id="Path_973" data-name="Path 973" d="M398.523,100.25a.524.524,0,1,0,.523.524A.524.524,0,0,0,398.523,100.25Z" transform="translate(-377.164 -95.002)" fill="#aeb8cb"/>
          <path id="Path_974" data-name="Path 974" d="M297.023,100a.524.524,0,1,0,.523.524A.524.524,0,0,0,297.023,100Z" transform="translate(-280.978 -94.765)" fill="#aeb8cb"/>
          <path id="Path_975" data-name="Path 975" d="M196.024,100a.524.524,0,1,0,.524.524A.524.524,0,0,0,196.024,100Z" transform="translate(-185.265 -94.765)" fill="#aeb8cb"/>
          <path id="Path_976" data-name="Path 976" d="M94.614,100.25a.524.524,0,1,0,.524.524A.524.524,0,0,0,94.614,100.25Z" transform="translate(-89.164 -95.002)" fill="#aeb8cb"/>
          <path id="Path_977" data-name="Path 977" d="M62.524,229.235h4.188a.524.524,0,0,0,.524-.524v-4.188a.524.524,0,0,0-.524-.524H62.524a.524.524,0,0,0-.524.524v4.188A.524.524,0,0,0,62.524,229.235Zm.524-4.188h3.141v3.141H63.047Z" transform="translate(-58.754 -213.273)" fill="#aeb8cb"/>
          <path id="Path_978" data-name="Path 978" d="M350.523,229.235h4.188a.523.523,0,0,0,.523-.524v-4.188a.524.524,0,0,0-.523-.524h-4.188a.524.524,0,0,0-.523.524v4.188A.523.523,0,0,0,350.523,229.235Zm.524-4.188h3.141v3.141h-3.141Z" transform="translate(-331.677 -213.273)" fill="#aeb8cb"/>
          <path id="Path_979" data-name="Path 979" d="M62.524,359.235h4.188a.524.524,0,0,0,.524-.523v-4.188a.524.524,0,0,0-.524-.524H62.524a.524.524,0,0,0-.524.524v4.188A.524.524,0,0,0,62.524,359.235Zm.524-4.188h3.141v3.141H63.047Z" transform="translate(-58.754 -336.467)" fill="#aeb8cb"/>
          <path id="Path_980" data-name="Path 980" d="M350.523,359.235h4.188a.523.523,0,0,0,.523-.523v-4.188a.524.524,0,0,0-.523-.524h-4.188a.524.524,0,0,0-.523.524v4.188A.523.523,0,0,0,350.523,359.235Zm.524-4.188h3.141v3.141h-3.141Z" transform="translate(-331.677 -336.467)" fill="#aeb8cb"/>
          <path id="Path_981" data-name="Path 981" d="M206.524,229.235h4.188a.524.524,0,0,0,.524-.524v-4.188a.524.524,0,0,0-.524-.524h-4.188a.524.524,0,0,0-.524.524v4.188A.524.524,0,0,0,206.524,229.235Zm.524-4.188h3.141v3.141h-3.141Z" transform="translate(-195.215 -213.273)" fill="#aeb8cb"/>
          <path id="Path_982" data-name="Path 982" d="M206.524,359.235h4.188a.523.523,0,0,0,.524-.523v-4.188a.524.524,0,0,0-.524-.524h-4.188a.524.524,0,0,0-.524.524v4.188A.524.524,0,0,0,206.524,359.235Zm.524-4.188h3.141v3.141h-3.141Z" transform="translate(-195.215 -336.467)" fill="#aeb8cb"/>
        </g>
      </g>
    </g>
  </g>
</svg>
