<svg xmlns="http://www.w3.org/2000/svg" width="36" height="58" viewBox="0 0 36 58">
  <g id="Group_1" data-name="Group 1" transform="translate(-202 -334)">
    <g id="Vector_Smart_Object" data-name="Vector Smart Object" transform="translate(-88 -461)">
      <g id="Vector_Smart_Object-2" data-name="Vector Smart Object" transform="translate(239.123 791.769)">
        <path id="Path_12" data-name="Path 12" d="M58.4,50.42l-2.443-1.547L53.513,50.42a.6.6,0,0,1-.9-.645L53.32,47l-2.186-1.87a.64.64,0,0,1,.321-1.1l2.893-.193L55.442,41.2a.579.579,0,0,1,1.093,0l1.093,2.644,2.893.193a.618.618,0,0,1,.321,1.1L58.656,47l.707,2.772A.657.657,0,0,1,58.4,50.42Zm13.821-.645L71.513,47l2.186-1.87a.64.64,0,0,0-.321-1.1l-2.829-.193L69.456,41.2a.579.579,0,0,0-1.093,0l-1.157,2.644-2.829.193a.618.618,0,0,0-.321,1.1L66.242,47l-.707,2.772a.592.592,0,0,0,.9.645l2.443-1.547L71.32,50.42A.6.6,0,0,0,72.22,49.775ZM86.3,44.037l-2.893-.193L82.313,41.2a.579.579,0,0,0-1.093,0l-1.093,2.644-2.893.193a.618.618,0,0,0-.321,1.1L79.1,47l-.707,2.772a.592.592,0,0,0,.9.645l2.443-1.547,2.443,1.547a.6.6,0,0,0,.9-.645L84.37,47l2.186-1.87A.591.591,0,0,0,86.3,44.037Zm-19.35,10.7-2.893-.193L62.963,51.9a.579.579,0,0,0-1.093,0l-1.093,2.643-2.829.193a.618.618,0,0,0-.321,1.1l2.186,1.87-.707,2.772a.592.592,0,0,0,.9.645l2.443-1.547,2.443,1.547a.6.6,0,0,0,.9-.645l-.707-2.772,2.186-1.87A.64.64,0,0,0,66.949,54.74Zm12.857,0-2.893-.193L75.82,51.9a.579.579,0,0,0-1.093,0l-1.093,2.643-2.829.193a.618.618,0,0,0-.321,1.1l2.186,1.87-.707,2.772a.592.592,0,0,0,.9.645l2.443-1.547,2.443,1.547a.6.6,0,0,0,.9-.645l-.707-2.772,2.186-1.87A.609.609,0,0,0,79.806,54.74Zm6.3-35.526a2.423,2.423,0,0,1,0,3.546l-.707.58a2.376,2.376,0,0,0-.643,2.708l.386.838A2.378,2.378,0,0,1,83.6,30.046l-.9.258a2.408,2.408,0,0,0-1.736,2.128l-.064.9a2.331,2.331,0,0,1-2.764,2.192l-.9-.193a2.331,2.331,0,0,0-2.443,1.161l-.386.9A2.333,2.333,0,0,1,71,38.17l-.771-.516a2.412,2.412,0,0,0-2.764,0l-.771.516a2.313,2.313,0,0,1-3.407-.774l-.45-.838a2.376,2.376,0,0,0-2.443-1.225l-.9.129a2.331,2.331,0,0,1-2.764-2.192l-.064-.9a2.28,2.28,0,0,0-1.671-2.128l-.9-.258a2.378,2.378,0,0,1-1.543-3.159l.386-.838a2.512,2.512,0,0,0-.579-2.708l-.707-.645a2.423,2.423,0,0,1,0-3.546l.707-.58A2.376,2.376,0,0,0,53,15.8l-.386-.838A2.378,2.378,0,0,1,54.156,11.8l.9-.258a2.408,2.408,0,0,0,1.736-2.128l.064-.9A2.331,2.331,0,0,1,59.62,6.319l.9.193a2.332,2.332,0,0,0,2.443-1.161l.45-.838a2.285,2.285,0,0,1,3.407-.838l.771.516a2.412,2.412,0,0,0,2.764,0l.771-.516a2.271,2.271,0,0,1,3.343.838l.45.838a2.376,2.376,0,0,0,2.443,1.225l.9-.129A2.331,2.331,0,0,1,81.027,8.64l.064.9a2.28,2.28,0,0,0,1.671,2.128l.9.258a2.378,2.378,0,0,1,1.543,3.159l-.386.838a2.512,2.512,0,0,0,.579,2.708Zm-8.871-1.87-3.15-3.224-7.329,7.286-3.021-3.03L60.52,21.535l3.021,3.095,3.15,3.224,3.214-3.159Z" fill="#141414"/>
      </g>
      <path id="Color_Overlay" data-name="Color Overlay" d="M311.086,852.247l.707-2.773-2.185-1.869a.619.619,0,0,1,.321-1.1l2.829-.194,1.093-2.643a.579.579,0,0,1,1.093,0l1.094,2.643,2.893.194a.609.609,0,0,1,.321,1.1l-2.185,1.869.707,2.773a.6.6,0,0,1-.9.644l-2.443-1.547-2.443,1.547a.553.553,0,0,1-.326.109A.61.61,0,0,1,311.086,852.247Zm-12.857,0,.707-2.773L296.75,847.6a.619.619,0,0,1,.321-1.1l2.829-.194,1.093-2.643a.58.58,0,0,1,1.094,0l1.093,2.643,2.893.194a.64.64,0,0,1,.321,1.1l-2.185,1.869.707,2.773a.6.6,0,0,1-.9.644l-2.444-1.547-2.443,1.547a.553.553,0,0,1-.326.109A.61.61,0,0,1,298.229,852.247Zm19.286-10.7.706-2.773-2.185-1.869a.618.618,0,0,1,.321-1.1l2.893-.193,1.093-2.643a.58.58,0,0,1,1.094,0l1.093,2.643,2.893.193a.591.591,0,0,1,.257,1.1l-2.186,1.869.707,2.773a.6.6,0,0,1-.9.644l-2.443-1.547-2.443,1.547a.554.554,0,0,1-.325.108A.609.609,0,0,1,317.515,841.544Zm-12.857,0,.707-2.773-2.186-1.869a.619.619,0,0,1,.321-1.1l2.829-.193,1.157-2.643a.579.579,0,0,1,1.093,0l1.093,2.643,2.829.193a.64.64,0,0,1,.321,1.1l-2.185,1.869.707,2.773a.6.6,0,0,1-.9.644L308,840.641l-2.443,1.547a.554.554,0,0,1-.325.108A.61.61,0,0,1,304.657,841.544Zm-7.136.644-2.443-1.547-2.443,1.547a.6.6,0,0,1-.9-.644l.707-2.773-2.185-1.869a.64.64,0,0,1,.321-1.1l2.893-.193,1.094-2.643a.579.579,0,0,1,1.093,0l1.093,2.643,2.893.193a.619.619,0,0,1,.322,1.1l-2.186,1.869.707,2.773a.662.662,0,0,1-.658.727A.612.612,0,0,1,297.521,842.189Zm12.6-12.25-.771-.516a2.411,2.411,0,0,0-2.764,0l-.771.516a2.313,2.313,0,0,1-3.407-.774l-.45-.838a2.375,2.375,0,0,0-2.443-1.225l-.9.129a2.332,2.332,0,0,1-2.765-2.192l-.064-.9a2.282,2.282,0,0,0-1.671-2.128l-.9-.257a2.379,2.379,0,0,1-1.543-3.16l.386-.838a2.513,2.513,0,0,0-.579-2.708l-.707-.644a2.426,2.426,0,0,1,0-3.547l.707-.58a2.376,2.376,0,0,0,.643-2.708l-.385-.838a2.378,2.378,0,0,1,1.543-3.16l.9-.257a2.411,2.411,0,0,0,1.736-2.128l.064-.9a2.33,2.33,0,0,1,2.764-2.192l.9.193a2.331,2.331,0,0,0,2.444-1.161l.45-.838a2.284,2.284,0,0,1,3.406-.838l.772.516a2.414,2.414,0,0,0,2.764,0l.771-.516a2.271,2.271,0,0,1,3.343.838l.45.838a2.375,2.375,0,0,0,2.443,1.225l.9-.129a2.331,2.331,0,0,1,2.764,2.192l.065.9a2.279,2.279,0,0,0,1.671,2.128l.9.257a2.378,2.378,0,0,1,1.543,3.16l-.386.838a2.515,2.515,0,0,0,.579,2.708l.707.581a2.423,2.423,0,0,1,0,3.546l-.707.581a2.374,2.374,0,0,0-.643,2.707l.386.839a2.378,2.378,0,0,1-1.544,3.159l-.9.258a2.407,2.407,0,0,0-1.735,2.128l-.065.9a2.33,2.33,0,0,1-2.764,2.192l-.9-.193a2.331,2.331,0,0,0-2.443,1.16l-.386.9a2.423,2.423,0,0,1-2.082,1.221A2.162,2.162,0,0,1,310.121,829.939ZM299.642,813.3l3.022,3.094,3.15,3.224,3.214-3.159,7.329-7.35-3.15-3.224-7.329,7.286-3.021-3.03Z" fill="#141414"/>
    </g>
  </g>
</svg>
