<svg xmlns="http://www.w3.org/2000/svg" width="11.076" height="12.603" viewBox="0 0 11.076 12.603">
  <g id="Group_114" data-name="Group 114" transform="translate(-215 -357)">
    <g id="trash" transform="translate(184 357)">
      <g id="Group_111" data-name="Group 111" transform="translate(31.768 3.692)">
        <g id="Group_110" data-name="Group 110">
          <path id="Path_138" data-name="Path 138" d="M62.205,150l.654,7.895a1.113,1.113,0,0,0,1.1,1.016h6.026a1.113,1.113,0,0,0,1.1-1.016L71.745,150Zm2.924,7.434a.369.369,0,0,1-.368-.346l-.369-5.957a.369.369,0,0,1,.345-.392.363.363,0,0,1,.392.345l.369,5.957A.369.369,0,0,1,65.129,157.434Zm2.216-.369a.369.369,0,0,1-.738,0v-5.957a.369.369,0,1,1,.738,0Zm2.215-5.934-.369,5.957a.369.369,0,1,1-.737-.046l.369-5.957a.375.375,0,0,1,.392-.345A.369.369,0,0,1,69.559,151.131Z" transform="translate(-62.205 -150)" fill="#e43741"/>
        </g>
      </g>
      <g id="Group_113" data-name="Group 113" transform="translate(31)">
        <g id="Group_112" data-name="Group 112">
          <path id="Path_139" data-name="Path 139" d="M41.338,1.477H39.123V1.108A1.109,1.109,0,0,0,38.015,0H35.061a1.109,1.109,0,0,0-1.108,1.108v.369H31.738a.738.738,0,0,0,0,1.477h9.6a.738.738,0,0,0,0-1.477Zm-2.954,0H34.692V1.108a.369.369,0,0,1,.369-.369h2.954a.369.369,0,0,1,.369.369Z" transform="translate(-31)" fill="#e43741"/>
        </g>
      </g>
    </g>
  </g>
</svg>
