<svg xmlns="http://www.w3.org/2000/svg" width="49" height="53" viewBox="0 0 49 53">
  <g id="Group_1" data-name="Group 1" transform="translate(-196 -337)">
    <g id="Vector_Smart_Object" data-name="Vector Smart Object" transform="translate(162.461 336.265)">
      <path id="Path_6" data-name="Path 6" d="M67.184,38.418v-1.6a18.917,18.917,0,0,0,12.824-5.768,2.623,2.623,0,0,0,.683-1.945,2.663,2.663,0,0,0-.97-1.868c-5.12-4.227-6.306-10.709-6.5-11.984-.076-.517-.168-1.089-.3-1.634C70.467,3.088,63.467.8,58.049.735h0C52.632.8,45.631,3.088,43.161,13.618c-.136.577-.222,1.127-.3,1.634-.19,1.258-1.382,7.74-6.5,11.984a2.657,2.657,0,0,0-.953,1.857,2.623,2.623,0,0,0,.683,1.955,18.917,18.917,0,0,0,12.824,5.774v1.6c-4.768,1.127-15.376,4.614-15.376,13.291a2.026,2.026,0,0,0,2.015,2.026H80.523a2.026,2.026,0,0,0,2.016-2.026C82.56,43.032,71.952,39.546,67.184,38.418Zm-4.7-1.841c.228.033.45.06.666.087v1.928a3.823,3.823,0,0,0,1.084,2.691,7.647,7.647,0,0,1-12.407,0,3.823,3.823,0,0,0,1.084-2.691V36.659a4.138,4.138,0,0,0,.666-.087,1.507,1.507,0,0,0,1.257-1.487,1.531,1.531,0,0,0-.894-1.378,9.735,9.735,0,0,1-4.746-4.777,19.9,19.9,0,0,0,6.886,2.255,1.813,1.813,0,0,0,1.479.774h.688a1.833,1.833,0,0,0,0-3.666H57.6a1.807,1.807,0,0,0-1.425.7,18.415,18.415,0,0,1-7.78-3.137,1.23,1.23,0,0,0-.033-.343l-.293-5.9c3.76-.392,8.6-1.781,11.562-5.992a13.261,13.261,0,0,0,8.344,7.152l-.238,4.766a9.744,9.744,0,0,1-5.618,8.171,1.531,1.531,0,0,0-.894,1.378A1.506,1.506,0,0,0,62.481,36.577Z" fill="#ef5a2f"/>
    </g>
  </g>
</svg>
