<svg xmlns="http://www.w3.org/2000/svg" width="25.764" height="25.767" viewBox="0 0 25.764 25.767">
  <g id="Group_1" data-name="Group 1" transform="translate(-208 -350.372)">
    <g id="edit" transform="translate(817.096 179.385)">
      <path id="Path_148" data-name="Path 148" d="M131.768,1.418a3.952,3.952,0,0,0-5.59,0l-15.67,15.67a.878.878,0,0,0-.225.387l-2.061,7.439A.878.878,0,0,0,109.3,26l7.439-2.061a.878.878,0,0,0,.387-.225L132.8,8.039a3.957,3.957,0,0,0,0-5.59ZM112.422,17.659,125.246,4.834l4.136,4.136L116.557,21.8Zm-.826,1.658,3.3,3.3-4.571,1.266ZM131.556,6.8l-.932.932-4.136-4.136.932-.932a2.2,2.2,0,0,1,3.105,0l1.031,1.031A2.2,2.2,0,0,1,131.556,6.8Zm0,0" transform="translate(-717.286 170.726)" fill="rgba(239,90,47,0.68)"/>
    </g>
  </g>
</svg>
