<svg xmlns="http://www.w3.org/2000/svg" width="70" height="57" viewBox="0 0 70 57">
  <g id="Group_9" data-name="Group 9" transform="translate(-185 -335)">
    <g id="Vector_Smart_Object" data-name="Vector Smart Object" transform="translate(134.384 330.135)">
      <g id="Group_8" data-name="Group 8">
        <path id="Path_7" data-name="Path 7" d="M110.192,40.4,87.786,18.194c-1.421-.863-2.841-1.294-4.263.108L61.117,40.294c-1.2,1.509-.656,1.941.875,2.265l4.729-.029-.029,17.062a2.164,2.164,0,0,0,2.4,2.2c2.478,0,10.821-.01,10.821-.01l-.011-17.051,11.5-.01-.01,17.151s9.209-.01,11.367-.01,1.9-2.371,1.9-2.371l-.029-16.925,4.689-.029C110.849,42.852,111.4,41.264,110.192,40.4Z" fill="#ef5a2f"/>
        <path id="Path_8" data-name="Path 8" d="M112.754,61.181a2.648,2.648,0,0,1-1.736.643l-2.637,0,.008,0h-3.469a2.615,2.615,0,0,0,.462-1.753l0-1.362h4.073a2.639,2.639,0,0,0,1.3-.607,30.724,30.724,0,0,0,.723-36.459l4.379.351a34.14,34.14,0,0,1-3.1,39.183Zm-.326-42.048L104.2,17.776c-.6-.1-.084-.516-.084-.516l1.538-1.84A31.861,31.861,0,0,0,70.31,12.227l.815-4.273a35.425,35.425,0,0,1,36.758,4.8l1.576-1.885s.321-.566.561.065c.572,1.507,2.262,5.966,2.9,7.658C113.154,19.291,112.428,19.133,112.428,19.133Zm-46.833-.112c-.159.583-.529.032-.529.032l-1.689-1.666a30.743,30.743,0,0,0-3.1,40.452c.069.059.138.12.206.185a2.643,2.643,0,0,0,1.392.688h4.1l0,1.469a2.241,2.241,0,0,0,.73,1.645H62.938l.008,0-2.637,0a2.648,2.648,0,0,1-1.826-.724c-.1-.091-.189-.175-.28-.256a34.159,34.159,0,0,1,2.7-45.9L59.129,13.2s-.54-.37.12-.545l8.007-2.116c.724-.16.5.538.5.538Z" fill="#ef5a2f"/>
      </g>
    </g>
  </g>
</svg>
