<svg xmlns="http://www.w3.org/2000/svg" width="134.019" height="90.439" viewBox="0 0 134.019 90.439">
  <g id="icn_collaborate_black" transform="translate(-2.487 -17.9)">
    <g id="Group_1238" data-name="Group 1238" transform="translate(2.487 17.9)">
      <g id="Group_1237" data-name="Group 1237">
        <path id="Path_431" data-name="Path 431" d="M38.473,42.245H60.9a4.373,4.373,0,1,0,0-8.745H28.176C11.25,33.5,3.634,44.784,3.211,45.207a4.234,4.234,0,0,0,.141,4.937l7.617,10.72A4.623,4.623,0,0,0,14.495,62.7a4.55,4.55,0,0,0,2.539-.846c.282-.141.423-.423.564-.564v3.1l-2.68,32.3a4.769,4.769,0,0,0,4.373,5.219,4.692,4.692,0,0,0,5.219-4.373l2.68-31.172h1.834l2.539,31.172a4.77,4.77,0,0,0,4.8,4.373h.423a4.769,4.769,0,0,0,4.373-5.219l-2.68-32.3ZM17.739,55.363,12.52,48.028A19.5,19.5,0,0,1,17.88,44.5ZM30.715,54.8l-2.257,2.539a.4.4,0,0,1-.705,0L25.5,54.8a.518.518,0,0,1-.141-.423l1.834-13.682h-.846a.45.45,0,0,1-.423-.423V37.449a.45.45,0,0,1,.423-.423h3.526a.45.45,0,0,1,.423.423V40.27a.45.45,0,0,1-.423.423h-.846l1.834,13.682C31,54.657,30.856,54.8,30.715,54.8Z" transform="translate(-2.487 -11.496)" fill="#ef5a2f"/>
        <circle id="Ellipse_347" data-name="Ellipse 347" cx="9.732" cy="9.732" r="9.732" transform="translate(15.957)" fill="#ef5a2f"/>
        <path id="Path_432" data-name="Path 432" d="M115.062,45.207C114.78,44.784,107.022,33.5,90.1,33.5H57.373a4.373,4.373,0,1,0,0,8.745H79.8L79.658,64.39l-2.68,32.3a4.769,4.769,0,0,0,4.373,5.219h.423a4.779,4.779,0,0,0,4.8-4.373l2.539-31.172h1.975l2.539,31.172a4.814,4.814,0,1,0,9.591-.846l-2.68-32.3v-3.1l.564.564a4.225,4.225,0,0,0,2.539.846,4.057,4.057,0,0,0,3.526-1.834l7.617-10.72A4.028,4.028,0,0,0,115.062,45.207ZM92.776,54.8l-2.257,2.539a.4.4,0,0,1-.705,0L87.557,54.8a.518.518,0,0,1-.141-.423L89.25,40.694H88.4a.45.45,0,0,1-.423-.423V37.449a.45.45,0,0,1,.423-.423H91.93a.45.45,0,0,1,.423.423V40.27a.45.45,0,0,1-.423.423h-.846l1.834,13.682C92.917,54.657,92.917,54.8,92.776,54.8Zm7.758.564L100.393,44.5a21.974,21.974,0,0,1,5.36,3.526Z" transform="translate(18.248 -11.496)" fill="#ef5a2f"/>
        <circle id="Ellipse_348" data-name="Ellipse 348" cx="9.732" cy="9.732" r="9.732" transform="translate(98.612)" fill="#ef5a2f"/>
        <path id="Path_433" data-name="Path 433" d="M74.1,53.394H45.892l3.1-3.1a3.192,3.192,0,0,0-4.514-4.514l-8.6,8.6a3.151,3.151,0,0,0,0,4.514l8.6,8.6a3.329,3.329,0,0,0,2.257.987,3,3,0,0,0,2.257-.987,3.151,3.151,0,0,0,0-4.514l-3.1-3.1H74.1a3.131,3.131,0,0,0,3.1-3.1A3.2,3.2,0,0,0,74.1,53.394Z" transform="translate(10.829 -6.847)" fill="#ef5a2f"/>
        <path id="Path_434" data-name="Path 434" d="M67.723,60.377a3.192,3.192,0,1,0-4.514,4.514l3.1,3.1H38.1a3.1,3.1,0,1,0,0,6.206h28.21l-3.1,3.244a3.151,3.151,0,0,0,0,4.514,3.329,3.329,0,0,0,2.257.987,3,3,0,0,0,2.257-.987l8.6-8.6a3.151,3.151,0,0,0,0-4.514Z" transform="translate(10.86 -0.854)" fill="#ef5a2f"/>
      </g>
    </g>
  </g>
</svg>
